<?xml version="1.0" encoding="UTF-8"?>
<svg id="Layer_2" data-name="Layer 2" xmlns="http://www.w3.org/2000/svg" viewBox="0 0 893.54 237.77">
  <defs>
    <style>
      .cls-1 {
        fill: #000;
      }

      .cls-1, .cls-2 {
        stroke-width: 0px;
      }

      .cls-2 {
        fill: #ad832f;
      }
    </style>
  </defs>
  <g id="Layer_1-2" data-name="Layer 1">
    <g>
      <path class="cls-1" d="M893.54,170.23c-.53,1.44-1.61,1.87-3.08,1.87-18.8-.02-37.59-.01-56.39-.01-.12,0-.24,0-.36,0-1.62-.05-2.33-.58-2.75-2.14-.97-3.58-1.92-7.17-2.88-10.76-1.45-5.44-2.91-10.87-4.36-16.31-.55-2.06-1.07-2.48-3.18-2.48-8.04,0-16.08,0-24.11,0-9.28,0-18.56,0-27.83,0-.36,0-.72-.01-1.08,0-1.37.07-2.03.56-2.42,1.89-.95,3.22-1.87,6.44-2.8,9.66-1.7,5.91-3.4,11.81-5.1,17.72-.56,1.93-1.15,2.4-3.15,2.4-18.72,0-37.43,0-56.15,0-.32,0-.64,0-.96-.04-1.64-.24-2.47-1.57-1.93-3.15.38-1.09.83-2.16,1.24-3.25.47-1.25.3-2.11-.53-2.83-.81-.7-1.77-.75-2.88-.08-9,5.5-18.84,8.63-29.16,10.4-8.94,1.54-17.94,2.11-27,1.85-6.16-.18-12.26-1.04-18.31-2.25-2.21-.44-4.4-.68-6.65-.67-15.8.03-31.59.02-47.39.02-.32,0-.64,0-.96,0-1.85-.03-2.49-.51-2.97-2.3-2.38-8.91-4.76-17.81-7.14-26.72-.09-.35-.16-.7-.29-1.04-.35-.95-1.01-1.52-2.04-1.59-.4-.03-.8-.03-1.2-.03-17.28,0-34.55,0-51.83,0-.24,0-.48,0-.72,0-1.57.05-2.24.55-2.68,2.05-1.06,3.64-2.1,7.29-3.15,10.93-1.58,5.48-3.16,10.97-4.75,16.45-.51,1.77-1.14,2.24-3.02,2.25-3.16,0-6.32,0-9.48,0-18.64,0-37.27,0-55.91,0-5.35,0-10.38-1.18-14.98-3.98-5.37-3.27-9.19-7.86-11.47-13.72-2.56-6.59-5.1-13.18-7.67-19.76-2.11-5.44-4.84-10.52-8.79-14.87-2.25-2.47-4.77-4.6-7.79-6.1-2.47-1.23-5.07-1.92-7.83-2.01-2.07-.07-2.95.75-2.95,2.83,0,12.07,0,24.13,0,36.2,0,6.07,0,12.15,0,18.22,0,.32.01.64,0,.96-.07,1.15-.75,1.95-1.89,2.15-.51.09-1.03.08-1.55.08-17.04,0-34.07,0-51.11,0-.4,0-.8.02-1.2-.03-1.37-.15-2.17-.98-2.26-2.35-.02-.28,0-.56,0-.84,0-55.22,0-110.44,0-165.66,0-.04,0-.08,0-.12-.14-1.5.47-2.53,1.88-3.09,26.64,0,53.27,0,79.91,0,.63.06,1.27.17,1.9.18,6.12.08,12.22.52,18.3,1.23,6.36.75,12.64,1.88,18.8,3.66,6.41,1.85,12.52,4.35,18.06,8.13,7.45,5.09,12.73,11.81,15.33,20.51,2.08,6.97,2.35,14.07,1.31,21.23-1.36,9.3-5.47,17.2-12.22,23.73-4.98,4.82-10.82,8.29-17.15,11.01-4.41,1.9-8.97,3.35-13.62,4.54-.36.09-.79.08-1.04.66.61.2,1.16.38,1.72.55,6.02,1.84,11.58,4.57,16.5,8.54,4.51,3.64,7.98,8.14,10.97,13.06.27.44.51.91.81,1.33,1.08,1.48,3.1,1.32,3.92-.31.2-.39.33-.81.49-1.22,14.71-38.14,29.42-76.27,44.1-114.42.41-1.05.92-1.91,1.96-2.39h69.83c1.05.47,1.58,1.31,1.97,2.38,3,8.38,6.06,16.74,9.09,25.1,11.28,31.06,22.56,62.13,33.81,93.2.45,1.25,1.17,2.08,2.35,2.69,5.68,2.93,11.65,5.01,17.87,6.43,6.33,1.44,12.63,1.28,18.87-.36,8.12-2.13,13.82-7.08,16.95-14.91,1.1-2.76,1.81-5.62,2.29-8.54.6-3.72.76-7.46.76-11.22,0-30.56,0-61.12-.02-91.68,0-1.51.48-2.54,1.9-3.08h54.47c1.4.58,1.96,1.65,1.84,3.13-.02.28,0,.56,0,.84,0,26.73,0,53.46,0,80.19,0,.44,0,.88.02,1.32.04.69.4,1.2.96,1.58,1.2.79,2.71.38,3.32-.96.49-1.09.88-2.23,1.31-3.35,10.31-26.74,20.63-53.48,30.93-80.23.43-1.13.93-2.12,2.16-2.51h69.59c1.08.42,1.63,1.24,2.02,2.33,19.15,52.82,38.32,105.63,57.5,158.44,1.03,2.84,2.08,5.67,3.11,8.51v.96ZM356.73,55.63c0,5.63,0,11.27,0,16.9,0,1.85.87,2.7,2.72,2.72,1.32.01,2.64,0,3.96,0,3.28,0,6.56.07,9.81-.44,5.34-.84,10.13-2.85,14.09-6.63,2.51-2.4,4.29-5.24,5.18-8.62.6-2.31.73-4.65.51-7.02-.58-6.25-3.57-10.91-9.2-13.79-3.03-1.55-6.31-2.3-9.68-2.54-2.95-.21-5.91-.21-8.87-.27-2.04-.04-4.08-.02-6.12,0-1.2.01-2.05.64-2.3,1.71-.1.42-.09.87-.09,1.31,0,5.55,0,11.11,0,16.66ZM523.38,103.55c4.88,0,9.76,0,14.64,0,.32,0,.64.02.96-.02,1.35-.15,2.22-1.25,2.05-2.6-.04-.31-.14-.62-.23-.93-3.49-12.16-6.96-24.33-10.49-36.48-2.25-7.75-4.37-15.52-5.48-23.54-.08-.59-.1-1.2-.27-1.77-.09-.28-.42-.63-.69-.68-.44-.09-.7.28-.79.72-.02.08-.02.16-.03.24-.77,3.55-1.36,7.15-2.34,10.63-4.17,14.79-8.45,29.55-12.69,44.32-.68,2.38-1.41,4.75-2.06,7.13-.44,1.61.54,2.88,2.19,2.97.28.02.56,0,.84,0,4.8,0,9.6,0,14.4,0ZM793.97,103.55c4.84,0,9.68,0,14.51,0,.36,0,.72.02,1.08-.02,1.29-.17,2.13-1.25,1.97-2.54-.04-.35-.16-.7-.25-1.04-3.09-10.78-6.2-21.55-9.26-32.34-1.58-5.56-3.22-11.12-4.58-16.74-.98-4.03-1.54-8.15-2.27-12.23-.14-.77-.38-1.16-.83-1.11-.55.06-.68.49-.75.94-.01.08-.03.16-.05.24-.86,3.85-1.54,7.76-2.61,11.55-4.64,16.39-9.4,32.76-14.12,49.13-.15.54-.34,1.07-.41,1.62-.14,1.09.41,2.02,1.41,2.37.44.15.94.18,1.41.18,4.92.01,9.84,0,14.75,0Z"/>
      <path class="cls-2" d="M26.95,152.81c-.32-1.35.01-2.57.21-3.77,1.55-9.73,4.8-18.85,9.95-27.27,2.28-3.73,4.91-7.19,7.87-10.4,6.23-6.77,12.81-13.18,19.36-19.63,2.22-2.19,4.36-4.46,6.51-6.71.47-.49.86-1.05,1.28-1.59,1.19-1.52,1.73-3.19,1.35-5.15-.38-1.95-.67-3.92-1.01-5.89-.03-.15-.1-.3-.24-.71-.1.44-.17.63-.17.82,0,1.36.04,2.72,0,4.07-.07,2.26-.76,4.25-2.32,6-3.91,4.4-8.1,8.51-12.49,12.43-4.62,4.13-9.25,8.25-13.39,12.87-2.32,2.59-4.55,5.26-6.76,7.94-3.34,4.06-5.61,8.72-7.5,13.58-1.26,3.23-2.42,6.51-3.62,9.77-.15.4-.3.8-.46,1.21-.22-.08-.35-.09-.43-.16-3.11-2.46-5.73-5.33-7.38-8.99-1.34-2.96-1.53-5.99-.59-9.11.93-3.05,2.38-5.83,4.11-8.49,3.24-4.98,7.18-9.39,11.29-13.65,2.94-3.05,6-5.99,8.85-9.12,3.22-3.54,5.78-7.54,7.48-12.05.19-.5.32-1.03.48-1.54-.08-.04-.16-.07-.24-.11-.18.23-.39.44-.53.7-2.98,5.42-6.93,10.03-11.52,14.16-3.36,3.02-6.6,6.17-9.8,9.35-1.47,1.46-2.71,3.14-4.05,4.73-.31.36-.59.74-1.09,1.39-.22-.37-.37-.65-.55-.9-1.52-1.98-2.8-4.07-3.38-6.55-.46-1.98-.24-3.84.97-5.48,1.14-1.54,2.35-3.04,3.65-4.43,1.8-1.93,3.74-3.72,5.58-5.61,1.03-1.06,2-2.17,2.96-3.3,1.03-1.21,1.05-2.63.69-4.08-.1-.39-.4-.73-.6-1.09-.12-.05-.24-.11-.36-.16-.07.19-.12.39-.22.56-1.23,2.07-3.14,3.18-5.45,3.51-1.97.29-3.97.46-5.96.46-4.4,0-8.79-.11-13.19-.21-2.29-.05-5.24-2.46-5.75-4.77-.38-1.74-.64-3.51-.41-5.34.23-1.82.27-3.66.36-5.5.07-1.54.49-2.99,1.18-4.36.08-.17.24-.3.4-.51,1.83.78,3.6,1.62,5.07,2.93.45.4.83.99,1.01,1.57.79,2.51,3.04,4.28,5.67,4.4,1.67.07,3.15-.43,4.51-1.35,3.06-2.09,4.87-5.05,5.64-8.6.84-3.87.49-7.71-.9-11.42-.33-.89-.82-1.74-1.37-2.51-1.41-1.98-3.43-2.63-5.79-2.38-.65.07-1.27.32-1.65.88-2.21,3.16-5.51,4.63-8.99,5.82-.89.3-1.8.57-2.82.89,0-.72-.03-1.27,0-1.82.19-2.63.49-5.25.57-7.88.06-2.15-.15-4.31-.22-6.46-.07-2.19-.15-4.39-.15-6.58,0-1.95.98-3.34,2.69-4.2,2.23-1.11,4.48-1.53,6.9-.44,3.22,1.45,6.65,1.99,10.15,1.92,3.51-.06,7.02-.28,10.53-.44,1.48-.07,2.95-.18,4.43-.24,2.47-.1,4.95-.2,7.42-.27,2.52-.08,5.03-.2,7.55-.19,1.43,0,2.86.26,4.28.39.89.08,1.51.55,2.12,1.2.9.96,1.88,1.85,2.91,2.66,2.51,1.97,5.27,3.05,8.57,2.4,2.21-.44,4.36.11,6.42.93,2.37.94,4.45,2.37,6.3,4.09,6.57,6.11,11.26,13.35,13.03,22.26.44,2.19.66,4.42,1.1,6.61.27,1.32.64,2.65,1.2,3.86,2.24,4.84,4.95,9.4,8.38,13.51,1.12,1.35,2.37,2.59,3.64,3.81,1.54,1.48,3.35,2.57,5.33,3.4,2.24.94,4.47,1.91,6.93,2.97-1.6.28-2.95.5-4.3.77-5.18,1.01-10.22,2.49-15.05,4.66-4.61,2.07-8.64,4.99-12.32,8.4-5.3,4.92-9.76,10.56-13.94,16.42-3.84,5.39-8.12,10.38-13.08,14.78-5.74,5.09-12.21,8.98-19.32,11.84-4.04,1.63-8.08,3.25-12.34,4.17-1.2.26-2.44.34-3.67.43-.5.04-1.01-.09-1.51-.13ZM52.83,29.5c-.64-.03-1.07-.07-1.5-.07-6.07,0-12.14,0-18.21,0-.28,0-.56-.02-.84.02-.58.08-.78.35-.59.91.12.37.32.76.59,1.01.67.61,1.37,1.24,2.14,1.71,2.89,1.76,6.03,2.89,9.31,3.65,2.57.59,4.68-.18,6.25-2.22.94-1.22,1.7-2.6,2.51-3.92.15-.25.18-.58.33-1.08Z"/>
      <path class="cls-2" d="M196.14,237.68c.15-1.5.28-2.91.43-4.33.08-.75.22-1.5.3-2.25.21-1.83,1.08-3.32,2.3-4.64,1.45-1.58,3.19-2.78,5.03-3.85,4.02-2.34,8.35-4,12.72-5.53,3.13-1.09,6.28-2.09,9.42-3.14.57-.19,1.14-.37,1.69-.6,3.96-1.66,5.7-4.79,5.5-9.03-.16-3.37-1.18-6.53-2.62-9.52-1.57-3.27-3.34-6.45-5.11-9.62-1.05-1.88-2.69-3.25-4.42-4.5-3.92-2.84-8.31-4.76-12.81-6.42-6.15-2.26-12.49-3.84-18.91-5.15-7.71-1.58-15.24-3.79-22.7-6.28-6.4-2.14-12.74-4.43-18.87-7.27-3.39-1.57-6.26-3.85-8.84-6.49-2.42-2.48-2.92-5.48-2.14-8.77.65-2.77,1.64-5.42,2.74-8.03,2.92-6.92,6.26-13.64,9.89-20.22,1.53-2.77,3.37-5.33,5.65-7.56,2.9-2.83,6.33-4.52,10.33-5.14,3.39-.53,6.79-.96,10.23-1.01,3.68-.05,7.35-.19,11.03-.15,3.87.04,7.38,1.24,10.38,3.74,1.47,1.23,2.94,2.46,4.37,3.74,2.92,2.62,5.81,5.25,8.7,7.9,5.05,4.65,8.94,10.2,12.33,16.12,4.91,8.6,8.59,17.73,11.74,27.1,2.95,8.78,5.35,17.72,7.36,26.76,1.27,5.69,1.54,11.46,1.33,17.27-.31,8.68-2.02,17.11-4.71,25.33-1.17,3.56-2.64,7.02-3.94,10.54-.31.85-.82,1.09-1.7,1.09-11.84-.03-23.67-.02-35.51-.02-.35,0-.7-.04-1.19-.07Z"/>
      <path class="cls-2" d="M140.09,154.23c-2.74.49-5.64.93-8.51,1.55-4.51.97-8.87,2.39-12.85,4.79-1.2.72-2.34,1.53-3.51,2.3-4.95,3.27-10.15,6.03-15.83,7.87-4.43,1.44-8.94,2-13.57,1.78-1.43-.07-2.86-.3-4.29-.42-.51-.04-.8-.21-.93-.73-1.51-6-4.41-11.37-7.58-16.61-1.48-2.44-3.4-4.54-5.32-6.62-1.65-1.79-3.37-3.53-5.05-5.29-.24-.26-.48-.52-.78-.84.25-.21.44-.4.66-.56,6.05-4.29,11.38-9.29,15.64-15.4,2.74-3.93,5.59-7.79,8.38-11.7,3.89-5.47,8.79-9.79,14.67-13.02,3.53-1.94,6.95-4.12,10.79-5.45,2.8-.97,5.67-1.66,8.63-1.81,2.79-.14,5.59-.26,8.38-.19,2.39.06,4.77.39,7.15.61,1.87.17,3.73.37,5.6.55,2.1.21,4.2.43,6.31.63,1.39.13,2.79.16,4.17.34,1.89.25,3.77.6,5.65.94.39.07.78.21,1.12.41.25.15.54.42.57.67.06.44-.37.52-.71.65-.96.38-2,.64-2.83,1.21-1.28.87-2.49,1.88-3.58,2.98-3.01,3.02-5.38,6.54-7.49,10.22-3.79,6.59-7.05,13.43-9.47,20.65-.89,2.65-1.58,5.36-1.95,8.14-.46,3.5.47,6.6,2.89,9.16,1.14,1.2,2.49,2.19,3.64,3.19Z"/>
      <path class="cls-2" d="M58.91,144.34c.31.23.56.36.75.55,2.59,2.6,5.23,5.17,7.75,7.84,2.81,2.96,4.73,6.52,6.49,10.16,2.84,5.9,4.77,12.1,5.77,18.57.71,4.62.96,9.28.65,13.97-.56,8.77-2.39,17.3-4.79,25.72-1.48,5.18-3.24,10.27-4.89,15.4-.39,1.22-.43,1.21-1.67,1.21-10.88,0-21.75,0-32.63,0-.39,0-.78-.04-1.23-.06-.02-.35-.1-.63-.05-.88.92-5.06,2.67-9.77,5.94-13.83,3.22-4,7.36-6.54,12.31-7.85,4.18-1.1,8.26-2.48,12.02-4.65,1.95-1.13,3.75-2.45,5.22-4.17,1.78-2.06,2.84-4.41,2.89-7.18.01-.85-.18-1.61-.75-2.21-.83-.86-1.67-1.73-2.61-2.45-2.55-1.95-5.34-3.52-8.24-4.87-4.81-2.24-9.65-4.43-14.54-6.5-11.06-4.69-17.88-12.93-20.8-24.49-.16-.62-.24-1.25-.34-1.88-.02-.15,0-.31.02-.45.1-.05.18-.13.23-.11,2.39.54,4.69-.03,6.96-.61,4.74-1.2,9.23-3.07,13.71-5,4.07-1.76,8.07-3.67,11.85-6.22Z"/>
      <path class="cls-2" d="M152.71,161.12c12.01,4.65,24.41,7.88,37.19,10.17.16,1.3.33,2.51.44,3.72.32,3.46.62,6.92.91,10.38.1,1.15.17,2.31.22,3.47.19,4.51.56,9.02.06,13.52-.1.9-.3,1.83-.66,2.66-3.5,8.03-7.46,15.83-12.38,23.08-1.45,2.13-3.33,3.97-5.04,5.92-.87.99-1.84,1.89-2.71,2.88-.55.62-1.15.86-1.98.85-4.84-.03-9.68-.02-14.51-.02-6.92,0-13.83,0-20.75,0h-1.44c.05-.83.08-1.53.15-2.22.43-4.09,1.38-8.02,3.44-11.62,1.89-3.32,4.55-5.77,8.25-6.9,4.84-1.47,9.71-2.87,14.58-4.27,4.79-1.37,9.62-2.65,14.24-4.54,1.93-.79,3.83-1.64,5.49-2.91.82-.62,1.57-1.36,2.23-2.15.69-.81.92-1.83.97-2.9.15-2.73-.46-5.32-1.42-7.84-2.54-6.68-6.32-12.55-11.61-17.37-1.95-1.77-4.2-3.2-6.19-4.92-3.12-2.68-6.14-5.48-9.19-8.24-.17-.15-.3-.34-.46-.52.06-.09.12-.17.17-.26Z"/>
      <path class="cls-2" d="M59.73,208.9c-1.44.38-2.72.67-3.97,1.04-2.14.63-4.28,1.28-6.39,1.99-3.31,1.11-6.2,2.94-8.68,5.39-1.1,1.1-2.15,2.25-3.17,3.43-1.71,1.99-3,4.22-3.71,6.77-.2.72-.48,1.41-.79,2.3-.28-.43-.48-.7-.66-.99-2.29-3.86-4.81-7.54-8.02-10.72-.43-.42-.86-.84-1.31-1.23-1.81-1.56-3.81-2.73-6.15-3.35-1.73-.46-3.42-1.07-5.1-1.69-.86-.31-1.69-.73-2.47-1.21-4.2-2.59-5.8-6.16-4.93-10.99.71-3.96,2.31-7.62,3.87-11.3,3.26-7.72,7.59-14.85,11.99-21.94.97-1.56,1.97-3.1,2.96-4.65.14-.22.31-.43.57-.77.2.51.34.87.49,1.22.91,2.21,1.79,4.44,2.75,6.63,1.84,4.2,4.74,7.55,8.34,10.33,1.93,1.49,3.89,2.93,5.84,4.4.31.23.61.47,1.07.82-1.34.4-2.52.72-3.68,1.11-3.25,1.1-6.49,2.22-9.73,3.34-3.32,1.15-6.12,3.05-8.46,5.68-1.65,1.85-3.33,3.68-4.58,5.83-.5.85-.83,1.8-1.17,2.73-.25.7-.03,1.34.49,1.86,1.69,1.74,3.66,3,6.14,3.14,1.5.09,2.96-.28,4.25-1.03,1.2-.7,2.37-1.49,3.44-2.37,3.13-2.56,6.52-4.59,10.44-5.7,2.42-.68,4.86-.86,7.34-.41,2.27.42,4.25,1.42,5.88,3.03,2.36,2.33,4.63,4.74,7.11,7.29Z"/>
      <path class="cls-2" d="M48.47.41c-.08.99-.15,1.93-.24,2.88-.08.83-.21,1.67-.24,2.5-.01.42.09.87.24,1.27.29.77.65,1.51,1.07,2.46,1.4-1.42,3.07-2.3,3.03-4.51-.02-1.26.28-2.53.45-3.8.1-.77.2-.91.99-.87,1.27.06,2.54.2,3.81.31.52.04,1.03.12,1.55.16,1.14.07,1.3.24,1.12,1.4-.16,1.06-.24,2.15-.53,3.18-.34,1.24-.11,2.26.74,3.2.34.38.62.82,1.04,1.38,1.04-1.08,2.26-1.85,2.65-3.34.36-1.39.73-2.78,1.11-4.16.1-.37.24-.74.4-1.2,2.35.59,4.61,1.16,6.98,1.75-.11.41-.18.75-.28,1.07-.25.76-.43,1.55-.78,2.26-.96,1.91-.1,3.63.32,5.43,1.08-.38,2.9-1.88,3.42-2.81.65-1.15,1.27-2.31,1.9-3.46.17-.31.36-.61.59-1.02,2.3.96,4.5,2.02,6.8,3.13-.2.37-.33.66-.5.9-.92,1.31-1.87,2.59-2.77,3.91-.23.34-.45.81-.41,1.19.1.98.35,1.94.54,2.89,1.21-.09,3.2-1.13,3.8-1.95.82-1.13,1.63-2.27,2.44-3.41.23-.32.48-.63.7-.93.89.32,7.33,4.81,8.71,6.07-.17.24-.33.5-.53.74-2.73,3.29-5.44,6.59-8.19,9.87-.83.99-1.51,2.04-1.94,3.27-.31.89-.7,1.74-1.11,2.75-.57-.33-.98-.55-1.39-.79-5.32-3.09-10.73-6.01-16.41-8.38-2.67-1.12-5.46-1.69-8.33-2.05-5.06-.65-10.13-.44-15.2-.4-1.28,0-2.55.15-3.83.21-.31.02-.62-.03-.99-.05-.03-.28-.12-.52-.08-.73.39-2.08.11-4.14-.13-6.2-.38-3.21-.75-6.42-1.13-9.62-.14-1.19-.31-2.37-.44-3.56-.1-.92.04-1.1.93-1.1,3.12-.02,6.24,0,9.35,0,.23,0,.45.1.75.17Z"/>
      <path class="cls-2" d="M479.22,236.79v-39.28c.41-.04.76-.09,1.1-.09,4.92,0,9.83-.08,14.74.03,2.82.06,5.66.27,8.41,1,5.72,1.51,9.61,5.15,11.66,10.59,2.03,5.38,1.98,10.93-.09,16.28-2.35,6.04-6.92,9.6-13.32,10.76-3.03.55-6.1.68-9.18.7-3.96.03-7.91,0-11.87,0h-1.47ZM489.47,228.92c1.55.24,6.19.18,7.69-.1,4.2-.78,6.96-3.19,8.2-7.29.73-2.41.84-4.88.44-7.35-.69-4.25-2.94-7.25-7.11-8.67-1.69-.57-3.44-.66-5.19-.77-1-.06-2-.03-3,0-.96.03-1.07.16-1.11,1.15,0,.12,0,.24,0,.36,0,7.11,0,14.22,0,21.33,0,.43.05.86.09,1.34Z"/>
      <path class="cls-2" d="M433.56,217.03c-.05-2.68.23-5.29,1.02-7.83,2.05-6.59,6.43-10.72,13.19-12.21,3.87-.85,7.79-.81,11.62.24,6.61,1.81,10.66,6.22,12.34,12.77,1.27,4.92,1.26,9.91-.17,14.8-2.05,7.02-6.75,11.21-13.98,12.51-3.67.66-7.32.57-10.91-.41-6.63-1.8-10.6-6.23-12.34-12.77-.62-2.33-.83-4.71-.77-7.09ZM462.26,215.96c-.11-.92-.18-2-.36-3.06-.4-2.32-1.28-4.42-2.79-6.26-2.93-3.56-8.66-3.57-11.62-.49-1.48,1.54-2.44,3.34-2.98,5.38-.9,3.42-.93,6.86-.17,10.31.48,2.17,1.4,4.14,2.92,5.81,3.03,3.35,8.85,3.39,11.77-.2.84-1.04,1.55-2.24,2.07-3.47,1.07-2.5,1.2-5.18,1.17-8.02Z"/>
      <path class="cls-2" d="M407.36,236.71h-9.74c-.06-.06-.09-.09-.11-.12-.02-.03-.06-.06-.06-.1-.03-.36-.08-.71-.08-1.07,0-12.5,0-25.01.02-37.51,0-.11.08-.22.15-.42.32-.03.67-.08,1.01-.08,5.28,0,10.56-.06,15.83.03,2.47.04,4.94.3,7.3,1.15.82.3,1.64.64,2.4,1.07,2.18,1.23,3.54,3.1,3.99,5.55.35,1.9.35,3.83-.21,5.7-.85,2.84-2.78,4.69-5.54,5.71-.41.15-.83.28-1.24.43-.07.02-.11.11-.19.2.04.08.07.21.15.25,2.02,1.15,3.2,2.98,4.01,5.07.99,2.57,1.91,5.17,2.85,7.75.61,1.69,1.22,3.38,1.82,5.07.13.37.24.74.4,1.26-.45.05-.78.11-1.12.11-2.8,0-5.6,0-8.4,0-1.08,0-1.08,0-1.41-1.04-1.03-3.19-2.05-6.38-3.1-9.57-.21-.64-.46-1.28-.76-1.88-.71-1.44-1.84-2.43-3.45-2.7-1.18-.19-2.37-.28-3.57-.33-.76-.03-.88.15-.95.92-.03.36-.02.72-.02,1.08,0,3.95,0,7.91,0,11.86v1.57ZM407.61,204.19c-.11.27-.18.38-.19.49-.02,3.03-.03,6.06-.04,9.09,0,.61.37.84.93.83,1.2-.02,2.4.04,3.59-.07,1.14-.11,2.3-.29,3.39-.63,1.5-.48,2.56-1.54,2.85-3.12.53-2.88-.38-5.19-3.51-6.13-2.31-.69-4.65-.43-7.03-.47Z"/>
      <path class="cls-2" d="M270.05,179.53c-1.67.7-3.34,1.4-5.01,2.1.02.09.04.19.06.28,1.28.36,2.62-.03,4.06.24-.29.25-.47.44-.68.57-3.4,2.12-7.05,2.64-10.92,1.59-1.74-.47-3.18-1.48-4.54-2.61-3.51-2.9-6.27-6.47-8.99-10.09-1.89-2.52-3.2-5.26-4.19-8.27-2.21-6.71-4.64-13.34-7.03-19.99-2.98-8.27-7.48-15.69-12.66-22.75-3.33-4.54-7.23-8.53-11.43-12.25-1.59-1.4-3.17-2.82-4.76-4.22-.29-.25-.61-.47-.91-.7.06-.07.12-.14.17-.2.11,0,.23-.02.33.02,8.69,3.53,16.78,8.05,23.82,14.31,4.37,3.89,8.14,8.29,10.51,13.69,1.31,2.99,2.31,6.12,3.33,9.23,1.73,5.27,3.34,10.58,5.06,15.85.48,1.47,1.11,2.91,1.79,4.31.9,1.86,2.33,3.15,4.28,3.98,3.39,1.45,6,3.94,8.23,6.81.97,1.25,1.73,2.67,2.5,4.07.49.89,1.14,1.58,2.03,1.96,1.46.63,2.97,1.14,4.47,1.69.14.05.29.08.44.12.01.08.02.17.04.25Z"/>
      <path class="cls-2" d="M808.29,236.71v-39.07c.88-.27,8.64-.33,10.05-.06.04.46.11.96.12,1.46,0,4.59,0,9.19.01,13.78,0,.46.07.91.11,1.37.09.03.17.06.26.09.29-.36.59-.7.86-1.07,3.54-4.93,7.1-9.86,10.6-14.82.52-.74,1.07-1.02,1.97-1,2.92.06,5.84.02,8.76.02.36,0,.71,0,1.12,0,.07.63-.4.91-.67,1.25-4.18,5.25-8.38,10.49-12.57,15.74-.17.22-.41.42-.5.67-.09.26-.11.6-.02.86.1.29.35.53.54.78,4.72,6.3,9.45,12.59,14.17,18.89.24.32.47.64.79,1.09-.4.04-.69.1-.98.1-3.48,0-6.96-.03-10.44.03-.91.01-1.45-.26-1.95-1.02-3.58-5.34-7.21-10.66-10.83-15.97-.26-.38-.55-.74-.83-1.11-.09.02-.18.04-.26.07-.04.49-.12.98-.12,1.47,0,4.79,0,9.59,0,14.38,0,.32,0,.64,0,.96-.03,1.15-.07,1.2-1.25,1.2-2.6,0-5.2,0-7.8,0-.35,0-.7-.05-1.12-.08Z"/>
      <path class="cls-2" d="M713.19,236.79c-.54,0-.89,0-1.24,0-2.84,0-5.68,0-8.51,0-1.14,0-1.15,0-1.51-1.09-.66-1.97-1.31-3.94-1.97-5.9-.15-.45-.35-.88-.53-1.34-.42-.02-.77-.05-1.13-.05-4.36,0-8.71,0-13.07,0-1.22,0-1.23,0-1.63,1.12-.76,2.14-1.52,4.29-2.26,6.44-.19.55-.45.86-1.1.85-2.92-.03-5.84-.02-8.75-.02-.11,0-.23-.05-.43-.11.08-.31.13-.61.23-.9,4.72-12.46,9.45-24.92,14.18-37.37.37-.98.39-.99,1.48-.99,3.32,0,6.64,0,9.95,0,1.51,0,1.37-.24,1.96,1.33,4,10.56,8,21.12,12,31.67.66,1.75,1.33,3.51,1.99,5.26.11.29.19.59.35,1.1ZM686.84,221.14c3.32-.02,6.64.04,10.02-.04-.03-.38-.02-.58-.08-.76-1.5-4.5-3-9-4.51-13.49-.07-.2-.25-.36-.4-.56-.73,1.15-5.02,13.73-5.03,14.85Z"/>
      <path class="cls-2" d="M601.23,236.73c.14-.45.24-.83.38-1.19,4.65-12.27,9.31-24.54,13.97-36.81.07-.19.15-.37.21-.56.18-.59.56-.79,1.17-.77,1.24.04,2.48.01,3.72.01,2.2,0,4.4,0,6.59,0,1.28,0,1.25-.22,1.79,1.23,2.62,6.94,5.26,13.88,7.89,20.81,2.02,5.33,4.04,10.67,6.06,16,.14.36.25.73.4,1.2-.36.05-.62.13-.88.13-3,0-5.99,0-8.99,0-.97,0-.98-.01-1.32-1.01-.71-2.08-1.39-4.16-2.1-6.24-.39-1.14-.39-1.14-1.61-1.14-4.36,0-8.71,0-13.07,0-1.19,0-1.2,0-1.6,1.14-.73,2.03-1.43,4.06-2.15,6.09-.41,1.15-.41,1.16-1.59,1.16-2.6,0-5.2,0-7.79,0-.31,0-.62-.03-1.07-.06ZM622.26,206.07c-.85,1.33-5.17,13.96-5.18,14.91,1.15.27,9.09.23,10.12-.11-1.62-4.85-3.23-9.7-4.93-14.8Z"/>
      <path class="cls-2" d="M805.42,236.7c-.48.04-.82.08-1.16.08-2.88,0-5.76,0-8.64,0-1.05,0-1.06,0-1.41-1.05-.71-2.08-1.4-4.16-2.1-6.24-.37-1.09-.38-1.1-1.51-1.1-4.4,0-8.8,0-13.2,0-1.14,0-1.15,0-1.53,1.08-.74,2.07-1.46,4.14-2.2,6.21-.39,1.09-.4,1.1-1.52,1.1-2.91,0-5.83,0-8.93,0,.16-.52.26-.92.41-1.31,2.73-7.2,5.47-14.4,8.21-21.61,1.9-5,3.79-10,5.69-15.01.1-.26.22-.52.3-.78.16-.48.47-.69.99-.68.92.03,1.84,0,2.76,0,2.56,0,5.12,0,7.68,0,1.38,0,1.29-.15,1.8,1.21,2.53,6.68,5.07,13.36,7.6,20.04,2.12,5.6,4.24,11.2,6.35,16.8.14.36.24.73.41,1.23ZM784.26,206.06c-.86,1.36-5.18,14.02-5.18,14.92,1.19.27,9.1.22,10.12-.11-1.62-4.86-3.24-9.71-4.94-14.81Z"/>
      <path class="cls-2" d="M560.24,236.71c-.41.03-.68.07-.95.07-2.96,0-5.91,0-8.87,0-1.07,0-1.08,0-1.43-1.02-.72-2.11-1.42-4.23-2.14-6.35-.34-1.01-.36-1.02-1.45-1.02-4.44,0-8.87,0-13.31,0-1.07,0-1.09.01-1.45,1.03-.75,2.1-1.47,4.22-2.22,6.32-.36,1.03-.38,1.03-1.44,1.04-2.6,0-5.2,0-7.79,0-.34,0-.68-.05-1.17-.09.16-.5.26-.87.39-1.23,4.63-12.2,9.25-24.39,13.88-36.59.08-.22.19-.44.26-.67.16-.59.51-.81,1.14-.81,3.6.02,7.19.03,10.79,0,.77,0,1.04.36,1.27.98.92,2.47,1.87,4.92,2.8,7.39,3.74,9.89,7.49,19.77,11.23,29.66.15.4.28.8.46,1.3ZM539.1,206.3l-.31.05c-.08.13-.19.25-.24.39-1.57,4.52-3.13,9.04-4.69,13.57-.07.2,0,.45,0,.67,1.39.3,9.17.23,10.11-.14-1.61-4.85-3.18-9.71-4.87-14.54Z"/>
      <path class="cls-2" d="M302.53,197.41c.43,0,.83,0,1.22,0,4.52,0,9.03-.04,13.55.02,2.31.03,4.62.29,6.85.94,1.9.55,3.66,1.37,5.12,2.75,1.96,1.85,2.83,4.23,3.09,6.83.19,1.87.15,3.75-.26,5.6-.94,4.23-3.56,6.96-7.61,8.34-1.9.65-3.86.98-5.87,1-1.12,0-2.24,0-3.36.02-3.01.04-2.7-.47-2.71,2.77-.01,3.15,0,6.31,0,9.46,0,.47,0,.95,0,1.38-.93.31-8.43.4-9.99.15-.03-.03-.06-.05-.09-.08-.02-.03-.06-.06-.06-.1-.03-.36-.08-.71-.08-1.07,0-12.5.01-25,.02-37.5,0-.11.07-.22.18-.51ZM312.7,216.03c2.16.13,4.23.27,6.21-.5,1.93-.75,2.96-2.22,3.11-4.28.04-.59.03-1.2,0-1.79-.13-2.38-1.48-4.21-3.81-4.77-1.37-.33-2.83-.36-4.26-.41-1.27-.05-1.39.1-1.4,1.33-.01,3.07,0,6.14,0,9.2,0,.38.09.77.14,1.22Z"/>
      <path class="cls-2" d="M733.89,227.61c.85.32,1.55.6,2.26.85,2.84,1,5.74,1.75,8.78,1.53,1.14-.08,2.3-.34,3.36-.75.74-.29,1.46-.86,1.98-1.48,1.2-1.42,1.06-3.19-.4-4.35-.99-.78-2.14-1.4-3.29-1.91-1.49-.66-3.07-1.13-4.59-1.71-2.1-.8-4.1-1.78-5.86-3.2-2.29-1.85-3.45-4.27-3.49-7.18-.02-1.34.06-2.73.36-4.03.74-3.25,2.82-5.49,5.76-6.95,2.06-1.02,4.25-1.6,6.55-1.74,1.79-.12,3.59-.27,5.38-.2,2.71.1,5.41.39,8.03,1.13.84.23.92.32.84,1.16-.19,2.02-.41,4.05-.63,6.07-.02.22-.11.44-.19.74-.55-.19-1.04-.34-1.52-.51-2.62-.93-5.3-1.52-8.09-1.33-1.06.07-2.13.31-3.16.57-.53.13-1.03.44-1.48.76-1.84,1.32-1.95,3.7-.16,5.1.77.6,1.71,1.02,2.63,1.37,2.46.93,4.97,1.74,7.43,2.68,1.76.67,3.38,1.62,4.68,3.05,1.49,1.63,2.29,3.54,2.44,5.72.12,1.76.09,3.51-.34,5.23-.84,3.34-2.82,5.77-5.86,7.35-2.3,1.19-4.78,1.68-7.34,1.98-2.45.29-4.88.19-7.29-.07-2.29-.25-4.55-.78-6.82-1.18-.65-.12-.81-.54-.75-1.14.2-1.9.39-3.81.58-5.71.06-.55.14-1.1.23-1.83Z"/>
      <path class="cls-2" d="M657.3,214.18c.31-.61.52-.98.7-1.36,2.24-4.73,4.5-9.44,6.68-14.19.43-.94.98-1.26,2-1.24,2.72.07,5.44.02,8.16.02h1.39c-.27.53-.44.92-.65,1.28-4.33,7.46-8.65,14.92-13,22.37-.42.72-.63,1.43-.62,2.26.02,3.95.01,7.91,0,11.86,0,.47-.04.94-.07,1.58-3.38.03-6.67.01-10.08.01-.03-.56-.07-.99-.07-1.41,0-3.99-.02-7.99,0-11.98,0-.83-.18-1.54-.59-2.27-4.3-7.48-8.57-14.97-12.85-22.46-.19-.34-.37-.69-.62-1.16.38-.04.64-.09.9-.09,3.2,0,6.4.02,9.59-.02.8-.01,1.21.26,1.54.99,2.26,4.85,4.57,9.68,6.86,14.51.18.37.4.73.71,1.3Z"/>
      <path class="cls-2" d="M344.58,205.14c-.6,0-1.03,0-1.46,0-2.44,0-4.88,0-7.32,0-.95,0-1.03-.07-1.03-1.02-.02-1.88-.02-3.76,0-5.63,0-1,.07-1.06,1.12-1.06,4.72,0,9.44,0,14.16,0,4.36,0,8.72,0,13.08,0,.43,0,.86,0,1.45,0,.14,2.59.07,5.04.04,7.66-1.67.12-3.25.05-4.83.06-1.55.01-3.11,0-4.81,0-.05.67-.12,1.25-.12,1.83,0,9.31,0,18.62,0,27.93,0,2.23-.07,1.88-1.88,1.89-2.32.01-4.64,0-6.96,0h-1.32c-.19-1.22-.07-2.37-.09-3.5-.02-1.16,0-2.32,0-3.48v-24.67Z"/>
      <path class="cls-2" d="M873.82,205.15h-9.49c-.04.64-.11,1.18-.11,1.72,0,9.38,0,18.76,0,28.15v1.5c-.91.32-8.34.41-10.11.14-.03-.47-.09-.97-.09-1.47,0-9.42,0-18.84,0-28.27,0-.55-.06-1.09-.1-1.77h-9.62c-.19-2.59-.05-5.05-.1-7.63,2.56-.22,5.02-.08,7.47-.1,2.48-.03,4.96,0,7.43,0h14.68c.33.97.38,6.38.06,7.74Z"/>
      <path class="cls-2" d="M597.83,197.59v1.34c0,7.99,0,15.97,0,23.96,0,2.49-.31,4.93-1.13,7.3-1.59,4.61-5,6.77-9.69,7.35-2.74.34-5.41.08-8.07-.5-.42-.09-.83-.24-1.28-.37v-8.17c.88.13,1.72.3,2.58.39,1.37.14,2.71-.04,3.97-.61,1.22-.56,2.03-1.51,2.52-2.76.74-1.89.89-3.88.91-5.88.03-3.39,0-6.79,0-10.18,0-3.51,0-7.03,0-10.54,0-.43,0-.86,0-1.25.96-.31,8.7-.37,10.19-.08Z"/>
      <path class="cls-2" d="M888.97,236.71h-9.82c-.27-.96-.34-37.63-.1-39.06.79-.28,8.27-.37,9.87-.12.02.02.05.05.08.08.02.03.06.06.06.1.03.32.08.63.08.95,0,12.54,0,25.07-.02,37.61,0,.11-.07.22-.15.43Z"/>
      <path class="cls-2" d="M362.59,236.69c-.04-.43-.09-.75-.09-1.06,0-2.12-.01-4.23,0-6.35,0-1.17.09-1.27,1.2-1.28,2.16-.02,4.32-.02,6.47,0,1.11,0,1.22.12,1.22,1.26.02,2.12.02,4.23,0,6.35,0,1.11-.07,1.17-1.15,1.17-2.24.01-4.48,0-6.71,0-.27,0-.54-.05-.94-.1Z"/>
    </g>
  </g>
</svg>